<svg width="137px" height="313px"
 viewBox="0.00 0.00 137.00 313.00" xmlns="http://www.w3.org/2000/svg" xmlns:xlink="http://www.w3.org/1999/xlink">
<g id="graph0" class="graph" transform="scale(1.0 1.0) rotate(0.0) translate(4.0 309.0)">
<title>%3</title>
<polygon fill="white" stroke="transparent" points="-4,4 -4,-309 133,-309 133,4 -4,4"/>
<!-- 1 -->
<g id="node1" class="node">
<title>1</title>
<ellipse fill="none" stroke="red" cx="90" cy="-287" rx="27" ry="18"/>
<text text-anchor="middle" x="90" y="-283.3" font-family="Times,serif" font-size="14.00">1</text>
</g>
<!-- 2 -->
<g id="node3" class="node">
<title>2</title>
<ellipse fill="none" stroke="black" cx="63" cy="-200" rx="27" ry="18"/>
<text text-anchor="middle" x="63" y="-196.3" font-family="Times,serif" font-size="14.00">2</text>
</g>
<!-- 1&#45;&gt;2 -->
<g id="edge1" class="edge">
<title>1&#45;&gt;2</title>
<path fill="none" stroke="black" d="M84.67,-269.21C80.89,-257.33 75.76,-241.17 71.44,-227.56"/>
<polygon fill="black" stroke="black" points="74.69,-226.23 68.32,-217.76 68.01,-228.35 74.69,-226.23"/>
<text text-anchor="middle" x="83" y="-239.8" font-family="Times,serif" font-size="14.00">0</text>
</g>
<!-- &#45;1 -->
<g id="node4" class="node">
<title>&#45;1</title>
<ellipse fill="none" stroke="black" cx="80" cy="-18" rx="27" ry="18"/>
<text text-anchor="middle" x="80" y="-14.3" font-family="Times,serif" font-size="14.00">&#45;1</text>
</g>
<!-- 1&#45;&gt;&#45;1 -->
<g id="edge2" class="edge">
<title>1&#45;&gt;&#45;1</title>
<path fill="none" stroke="black" d="M92.88,-269.01C95.05,-255.3 97.85,-235.47 99,-218 103.8,-145.13 100.98,-126.03 89,-54 88.55,-51.31 88,-48.52 87.38,-45.75"/>
<polygon fill="black" stroke="black" points="90.77,-44.85 84.99,-35.96 83.97,-46.51 90.77,-44.85"/>
<text text-anchor="middle" x="115" y="-152.8" font-family="Times,serif" font-size="14.00">138</text>
</g>
<!-- 3 -->
<g id="node2" class="node">
<title>3</title>
<ellipse fill="none" stroke="black" cx="22" cy="-109" rx="18" ry="18"/>
<ellipse fill="none" stroke="black" cx="22" cy="-109" rx="22" ry="22"/>
<text text-anchor="middle" x="22" y="-105.3" font-family="Times,serif" font-size="14.00">3</text>
</g>
<!-- 3&#45;&gt;&#45;1 -->
<g id="edge5" class="edge">
<title>3&#45;&gt;&#45;1</title>
<path fill="none" stroke="black" d="M19.33,-86.95C18.99,-76.39 20.2,-63.79 26,-54 31.2,-45.23 39.56,-38.26 48.16,-32.93"/>
<polygon fill="black" stroke="black" points="50.06,-35.87 57.09,-27.95 46.65,-29.76 50.06,-35.87"/>
<text text-anchor="middle" x="46" y="-57.8" font-family="Times,serif" font-size="14.00">many</text>
</g>
<!-- 2&#45;&gt;3 -->
<g id="edge4" class="edge">
<title>2&#45;&gt;3</title>
<path fill="none" stroke="black" d="M50.37,-183.67C45.99,-177.79 41.34,-170.84 38,-164 34.38,-156.59 31.41,-148.19 29.05,-140.27"/>
<polygon fill="black" stroke="black" points="32.42,-139.31 26.39,-130.6 25.67,-141.17 32.42,-139.31"/>
<text text-anchor="middle" x="52" y="-152.8" font-family="Times,serif" font-size="14.00">138</text>
</g>
<!-- 2&#45;&gt;&#45;1 -->
<g id="edge3" class="edge">
<title>2&#45;&gt;&#45;1</title>
<path fill="none" stroke="black" d="M64.63,-181.74C67.59,-150.43 73.86,-84.02 77.41,-46.43"/>
<polygon fill="black" stroke="black" points="80.92,-46.49 78.37,-36.21 73.95,-45.83 80.92,-46.49"/>
<text text-anchor="middle" x="78" y="-105.3" font-family="Times,serif" font-size="14.00">0</text>
</g>
</g>
</svg>
