<svg width="62px" height="226px"
 viewBox="0.00 0.00 62.00 226.00" xmlns="http://www.w3.org/2000/svg" xmlns:xlink="http://www.w3.org/1999/xlink">
<g id="graph0" class="graph" transform="scale(1.0 1.0) rotate(0.0) translate(4.0 222.0)">
<title>%3</title>
<polygon fill="white" stroke="transparent" points="-4,4 -4,-222 58,-222 58,4 -4,4"/>
<!-- 1 -->
<g id="node1" class="node">
<title>1</title>
<ellipse fill="none" stroke="red" cx="27" cy="-200" rx="27" ry="18"/>
<text text-anchor="middle" x="27" y="-196.3" font-family="Times,serif" font-size="14.00">1</text>
</g>
<!-- 2 -->
<g id="node2" class="node">
<title>2</title>
<ellipse fill="none" stroke="black" cx="27" cy="-109" rx="18" ry="18"/>
<ellipse fill="none" stroke="black" cx="27" cy="-109" rx="22" ry="22"/>
<text text-anchor="middle" x="27" y="-105.3" font-family="Times,serif" font-size="14.00">2</text>
</g>
<!-- 1&#45;&gt;2 -->
<g id="edge1" class="edge">
<title>1&#45;&gt;2</title>
<path fill="none" stroke="black" d="M27,-181.84C27,-170.44 27,-155.13 27,-141.58"/>
<polygon fill="black" stroke="black" points="30.5,-141.19 27,-131.19 23.5,-141.19 30.5,-141.19"/>
<text text-anchor="middle" x="32" y="-152.8" font-family="Times,serif" font-size="14.00">0</text>
</g>
<!-- &#45;1 -->
<g id="node3" class="node">
<title>&#45;1</title>
<ellipse fill="none" stroke="black" cx="27" cy="-18" rx="27" ry="18"/>
<text text-anchor="middle" x="27" y="-14.3" font-family="Times,serif" font-size="14.00">&#45;1</text>
</g>
<!-- 2&#45;&gt;&#45;1 -->
<g id="edge2" class="edge">
<title>2&#45;&gt;&#45;1</title>
<path fill="none" stroke="black" d="M27,-86.91C27,-74.78 27,-59.41 27,-46.36"/>
<polygon fill="black" stroke="black" points="30.5,-46.07 27,-36.07 23.5,-46.07 30.5,-46.07"/>
<text text-anchor="middle" x="32" y="-57.8" font-family="Times,serif" font-size="14.00">0</text>
</g>
</g>
</svg>
